<svg width="16" height="16" viewBox="0 0 16 16" fill="none" xmlns="http://www.w3.org/2000/svg">
<g id="Navigation / Arrow / Right">
<g id="Vector">
<path fill-rule="evenodd" clip-rule="evenodd" d="M3 7.9999C3 7.71299 3.23158 7.48038 3.51724 7.48038L12.4828 7.48038C12.7684 7.48038 13 7.71299 13 7.9999C13 8.28682 12.7684 8.51943 12.4828 8.51943H3.51724C3.23158 8.51943 3 8.28682 3 7.9999Z" fill="white"/>
<path fill-rule="evenodd" clip-rule="evenodd" d="M8.6331 11.8469C8.43165 11.6435 8.43248 11.3146 8.63496 11.1122L11.7492 7.99976L8.63496 4.88781C8.43248 4.68547 8.43165 4.35651 8.6331 4.15313C8.83455 3.94969 9.16207 3.94885 9.36462 4.15126L12.8474 7.63139C12.9449 7.72892 13 7.86164 13 7.9999C13 8.13817 12.945 8.27047 12.8474 8.368L9.36462 11.8487C9.16214 12.0511 8.83462 12.0503 8.6331 11.8469Z" fill="white"/>
</g>
</g>
</svg>
