<svg width="29" height="29" viewBox="0 0 29 29" fill="none" xmlns="http://www.w3.org/2000/svg">
<path d="M21.0926 2.71225C22.4943 1.69897 24.4051 1.58638 25.799 2.71701C27.2357 3.88094 27.7939 5.82504 27.1025 7.42505M8.4067 2.78678C6.9954 1.70531 5.02592 1.55942 3.59876 2.71701C2.16209 3.88094 1.60391 5.82504 2.29529 7.42663M16.2846 4.40581H13.1132C10.5898 4.40581 8.16976 5.40822 6.38546 7.19251C4.60117 8.97681 3.59876 11.3968 3.59876 13.9202V16.9886C3.59876 19.512 4.60117 21.932 6.38546 23.7163C8.16976 25.5006 10.5898 26.503 13.1132 26.503H16.2846C18.808 26.503 21.228 25.5006 23.0123 23.7163C24.7966 21.932 25.799 19.512 25.799 16.9886V13.9202C25.799 11.3968 24.7966 8.97681 23.0123 7.19251C21.228 5.40822 18.808 4.40581 16.2846 4.40581Z" stroke="#255ED6" stroke-width="3" stroke-linecap="round" stroke-linejoin="round"/>
<path d="M14.6987 9.05859V15.4015H20.2487M5.97713 24.123L2.80566 27.2945M23.4202 24.123L26.5916 27.2945" stroke="#255ED6" stroke-width="3" stroke-linecap="round" stroke-linejoin="round"/>
</svg>
