<svg width="14" height="10" viewBox="0 0 14 10" fill="none" xmlns="http://www.w3.org/2000/svg">
<path fill-rule="evenodd" clip-rule="evenodd" d="M6.99314 0.361328H7C7.97657 0.361328 8.92584 0.552603 9.8 0.912089L7.51905 2.79166C7.35511 2.76915 7.17759 2.75228 7 2.75228C5.49073 2.75228 4.26829 3.75929 4.26829 5.00257C4.26829 5.14886 4.28878 5.29514 4.31609 5.43017L1.78927 7.51166C1.10634 6.85909 0.512195 6.07091 0.0409763 5.16571C-0.0136588 5.06446 -0.0136588 4.94068 0.0409763 4.83383C1.50244 2.03218 4.10439 0.361328 6.99314 0.361328ZM11.5005 1.88591C12.4907 2.62851 13.3307 3.6299 13.9591 4.83383C14.0137 4.94068 14.0137 5.06446 13.9591 5.16571C12.4976 7.96737 9.89562 9.64383 7 9.64383H6.99314C5.67511 9.64383 4.41171 9.28943 3.29853 8.64246L5.46342 6.85909C5.90051 7.10046 6.43314 7.24726 7 7.24726C8.50241 7.24726 9.72489 6.24023 9.72489 5.00257C9.72489 4.53565 9.5473 4.09685 9.25365 3.73679L11.5005 1.88591Z" fill="#848484"/>
<path d="M12.9712 0.731617C13.1762 0.564251 13.1762 0.29289 12.9712 0.125524C12.7662 -0.0418415 12.4338 -0.0418415 12.2288 0.125524L1.02877 9.26841C0.823744 9.43578 0.823744 9.7071 1.02877 9.87447C1.23379 10.0418 1.56621 10.0418 1.77123 9.87447L6.23469 6.23081C6.4652 6.32492 6.7256 6.37795 7.00119 6.37795C7.93681 6.37795 8.7017 5.75738 8.7017 4.99823C8.7017 4.77166 8.6345 4.55772 8.51564 4.36881L12.9712 0.731617Z" fill="#848484"/>
</svg>
