<svg width="42" height="42" viewBox="0 0 42 42" fill="none" xmlns="http://www.w3.org/2000/svg">
<rect x="0.5" width="41" height="42" rx="20" fill="#CCE8FF" fill-opacity="0.5"/>
<path opacity="0.3" fill-rule="evenodd" clip-rule="evenodd" d="M12.8771 12.7461C12.3436 12.6032 11.7953 12.9198 11.6523 13.4532L9.06412 23.1125C8.92118 23.646 9.23776 24.1943 9.77123 24.3372L28.1238 29.2548C28.6573 29.3977 29.2056 29.0812 29.3486 28.5477L31.9368 18.8884C32.0797 18.355 31.7631 17.8066 31.2296 17.6637L12.8771 12.7461ZM24.3641 22.0357C23.7924 24.1696 21.599 25.4359 19.4652 24.8642C17.3313 24.2924 16.065 22.099 16.6367 19.9652C17.2085 17.8313 19.4019 16.565 21.5357 17.1368C23.6696 17.7085 24.9359 19.9019 24.3641 22.0357Z" fill="#1078CA"/>
<path fill-rule="evenodd" clip-rule="evenodd" d="M11 15C10.4477 15 10 15.4477 10 16V26C10 26.5523 10.4477 27 11 27H30C30.5523 27 31 26.5523 31 26V16C31 15.4477 30.5523 15 30 15H11ZM24.5 21C24.5 23.2091 22.7091 25 20.5 25C18.2909 25 16.5 23.2091 16.5 21C16.5 18.7909 18.2909 17 20.5 17C22.7091 17 24.5 18.7909 24.5 21ZM20.5 23C21.6046 23 22.5 22.1046 22.5 21C22.5 19.8954 21.6046 19 20.5 19C19.3954 19 18.5 19.8954 18.5 21C18.5 22.1046 19.3954 23 20.5 23Z" fill="#1078CA"/>
</svg>
