<svg width="17" height="21" viewBox="0 0 17 21" fill="none" xmlns="http://www.w3.org/2000/svg">
<path fill-rule="evenodd" clip-rule="evenodd" d="M1.5 18.5H15.5C15.7652 18.5 16.0196 18.6054 16.2071 18.7929C16.3946 18.9804 16.5 19.2348 16.5 19.5C16.5 19.7652 16.3946 20.0196 16.2071 20.2071C16.0196 20.3946 15.7652 20.5 15.5 20.5H1.5C1.23478 20.5 0.98043 20.3946 0.792893 20.2071C0.605357 20.0196 0.5 19.7652 0.5 19.5C0.5 19.2348 0.605357 18.9804 0.792893 18.7929C0.98043 18.6054 1.23478 18.5 1.5 18.5ZM0.5 13.5L10.5 3.5L13.5 6.5L3.5 16.5H0.5V13.5ZM11.5 2.5L13.5 0.5L16.5 3.5L14.499 5.501L11.5 2.5Z" fill="#A3A3A3"/>
</svg>
