<svg width="28" height="23" viewBox="0 0 28 23" fill="none" xmlns="http://www.w3.org/2000/svg">
<path d="M0.335219 16.9102V0.110155H6.98322C8.16722 0.110155 9.19122 0.326155 10.0552 0.758155C10.9352 1.19016 11.6072 1.79016 12.0712 2.55816C12.5512 3.32616 12.7912 4.23016 12.7912 5.27016C12.7912 6.55016 12.4552 7.62216 11.7832 8.48616C11.1112 9.33416 10.1832 9.91016 8.99922 10.2142L13.5112 16.4302V16.9102H10.4152L5.80722 10.4542H3.23922V16.9102H0.335219ZM6.98322 2.65416H3.23922V7.91016H6.98322C7.87922 7.91016 8.58322 7.67816 9.09522 7.21416C9.62322 6.75016 9.88722 6.10216 9.88722 5.27016C9.88722 4.50216 9.62322 3.87816 9.09522 3.39816C8.58322 2.90216 7.87922 2.65416 6.98322 2.65416ZM15.555 22.1182V4.26216H18.123L18.339 5.75016C19.171 4.56616 20.387 3.97416 21.987 3.97416C23.107 3.97416 24.075 4.24616 24.891 4.79016C25.723 5.33416 26.371 6.10216 26.835 7.09416C27.299 8.07016 27.531 9.23816 27.531 10.5982C27.531 11.9422 27.299 13.1102 26.835 14.1022C26.387 15.0942 25.747 15.8622 24.915 16.4062C24.083 16.9342 23.107 17.1982 21.987 17.1982C20.403 17.1982 19.195 16.6142 18.363 15.4462V22.1182H15.555ZM21.483 14.7502C22.491 14.7502 23.275 14.3902 23.835 13.6702C24.395 12.9342 24.675 11.9102 24.675 10.5982C24.675 9.27016 24.395 8.24616 23.835 7.52616C23.275 6.80616 22.491 6.44616 21.483 6.44616C20.523 6.44616 19.763 6.82216 19.203 7.57416C18.643 8.31016 18.363 9.31816 18.363 10.5982C18.363 11.8622 18.643 12.8702 19.203 13.6222C19.763 14.3742 20.523 14.7502 21.483 14.7502Z" fill="#255ED6"/>
</svg>
