<svg width="32" height="33" viewBox="0 0 32 33" fill="none" xmlns="http://www.w3.org/2000/svg">
<path fill-rule="evenodd" clip-rule="evenodd" d="M14.8 7.31016C10.1608 7.31016 6.4 11.071 6.4 15.7102C6.4 20.3494 10.1608 24.1102 14.8 24.1102C19.4392 24.1102 23.2 20.3494 23.2 15.7102C23.2 11.071 19.4392 7.31016 14.8 7.31016ZM4 15.7102C4 9.74548 8.83533 4.91016 14.8 4.91016C20.7647 4.91016 25.6 9.74548 25.6 15.7102C25.6 21.6748 20.7647 26.5102 14.8 26.5102C8.83533 26.5102 4 21.6748 4 15.7102Z" fill="#255ED6"/>
<path fill-rule="evenodd" clip-rule="evenodd" d="M20.7319 21.6416C21.2006 21.173 21.9604 21.173 22.429 21.6416L27.649 26.8616C28.1176 27.3303 28.1176 28.0901 27.649 28.5587C27.1804 29.0273 26.4206 29.0273 25.952 28.5587L20.7319 23.3387C20.2633 22.8701 20.2633 22.1103 20.7319 21.6416Z" fill="#255ED6"/>
</svg>
