<svg width="14" height="15" viewBox="0 0 14 15" fill="none" xmlns="http://www.w3.org/2000/svg">
<path d="M0 7.5C0 3.634 3.134 0.5 7 0.5C10.866 0.5 14 3.634 14 7.5C14 11.366 10.866 14.5 7 14.5C3.134 14.5 0 11.366 0 7.5Z" fill="#1078CA"/>
<path fill-rule="evenodd" clip-rule="evenodd" d="M10.1487 5.00772C10.3654 5.20041 10.3848 5.53226 10.1921 5.74891L6.98006 9.36032C6.49251 9.90849 5.63578 9.90807 5.14869 9.35948L3.80722 7.84853C3.61471 7.63174 3.63443 7.29994 3.85125 7.10744C4.06807 6.91487 4.3999 6.93461 4.59241 7.15147L5.93384 8.66235C6.00342 8.74075 6.12585 8.74082 6.1955 8.66249L9.40753 5.0511C9.60023 4.83445 9.93203 4.81502 10.1487 5.00772Z" fill="white"/>
</svg>
